# xmcd
#
# Track frame offsets:
#	150
#	20481
#	41786
#	55993
#	71570
#	92405
#	106283
#	122810
#	138701
#	160599
#	186718
#	205210
#	224075
#	241541
#	259340
#	274505
#
# Disc length: 3917
#
# Revision: 1
# Processed by: cddbd v1.5.1PL0 Copyright (c) Steve Scherf et al.
# Submitted via: CDex 1.50beta10
# Normalized: r0:TRMNUM
#
DISCID=f20f4b10
DTITLE=綜合 - 天籟美聲I
DYEAR=1900
DGENRE=New Age
TTITLE0=The sacred hum-聖歌禮讚
TTITLE1=Ameno-阿曼諾
TTITLE2=Nocturne-夜曲
TTITLE3=Innocent Voice-純真的美聲
TTITLE4=Hajao que houver-未來
TTITLE5=Tardes de bolonha-波隆尼亞的黃昏
TTITLE6=Tiden renner-堤登
TTITLE7=Arrivee dans jour-早晨到達
TTITLE8=Amazing grace-天賜恩寵
TTITLE9=The mummers' dance-舞曲女伶
TTITLE10=Paint the sky with stars-星空彩繪
TTITLE11=Time to say goodbye-告別時刻
TTITLE12=Whistle down the wind-微風輕哨
TTITLE13=Sweet lullaby-甜蜜的搖籃曲
TTITLE14=Perludio-普露迪歐
TTITLE15=Love song-情歌
EXTD=
EXTT0=
EXTT1=
EXTT2=
EXTT3=
EXTT4=
EXTT5=
EXTT6=
EXTT7=
EXTT8=
EXTT9=
EXTT10=
EXTT11=
EXTT12=
EXTT13=
EXTT14=
EXTT15=
PLAYORDER=
